<svg xmlns="http://www.w3.org/2000/svg" xmlns:xlink="http://www.w3.org/1999/xlink" xmlns:lucid="lucid" width="876.93" height="1356.36"><g transform="translate(1180 736.158051211971)" lucid:page-tab-id="0_0"><path d="M-826.47-710.16a5 5 0 0 1 5-5h158a5 5 0 0 1 5 5v90.8a5 5 0 0 1-5 5h-158a5 5 0 0 1-5-5z" stroke="#000" stroke-opacity="0" stroke-width="2" fill="#113667"/><use xlink:href="#a" transform="matrix(1,0,0,1,-821.4674999999997,-710.158051211971) translate(15.34567901234567 48.34722222222222)"/><use xlink:href="#b" transform="matrix(1,0,0,1,-821.4674999999997,-710.158051211971) translate(81.41975308641975 48.34722222222222)"/><use xlink:href="#c" transform="matrix(1,0,0,1,-821.4674999999997,-710.158051211971) translate(111.04938271604938 48.34722222222222)"/><path d="M-742.47-613.86v31.35" stroke="#333" fill="none"/><path d="M-742-613.85h-.94v-.5h.95z" stroke="#333" stroke-width=".05" fill="#333"/><path d="M-742.47-567.75L-747.1-582h9.27z" stroke="#333" fill="#333"/><path d="M-742.47-392.27v19.37a5 5 0 0 0 5 5h299a5 5 0 0 1 5 5v40.5" stroke="#333" fill="none"/><path d="M-742.47-392.77l.48-.03v.55h-.94v-.55z" stroke="#333" stroke-width=".05" fill="#333"/><path d="M-433.47-307.64l-4.63-14.27h9.27z" stroke="#333" fill="#333"/><use xlink:href="#d" transform="matrix(1,0,0,1,-626.6820987654321,-390.5702607357267) translate(0 12.444444444444446)"/><path d="M-527.83-301.02a5 5 0 0 1 5-5h178.73a5 5 0 0 1 5 5v94.84a5 5 0 0 1-5 5h-178.73a5 5 0 0 1-5-5z" stroke="#000" stroke-opacity="0" stroke-width="2" fill="#3278ca"/><use xlink:href="#e" transform="matrix(1,0,0,1,-522.8325,-301.025) translate(7.327160493827151 40.94097222222222)"/><use xlink:href="#f" transform="matrix(1,0,0,1,-522.8325,-301.025) translate(60.56172839506173 40.94097222222222)"/><use xlink:href="#g" transform="matrix(1,0,0,1,-522.8325,-301.025) translate(109.89506172839506 40.94097222222222)"/><use xlink:href="#h" transform="matrix(1,0,0,1,-522.8325,-301.025) translate(11.104938271604922 62.27430555555556)"/><use xlink:href="#b" transform="matrix(1,0,0,1,-522.8325,-301.025) translate(62.41358024691357 62.27430555555556)"/><use xlink:href="#i" transform="matrix(1,0,0,1,-522.8325,-301.025) translate(92.0432098765432 62.27430555555556)"/><use xlink:href="#j" transform="matrix(1,0,0,1,-522.8325,-301.025) translate(129.5246913580247 62.27430555555556)"/><path d="M-543.94-84.64h-71.74" stroke="#333" fill="none"/><path d="M-543.44-84.64l.04.47h-.55v-.94l.55-.02z" stroke="#333" stroke-width=".05" fill="#333"/><path d="M-630.45-84.64l14.27-4.64V-80z" stroke="#333" fill="#333"/><use xlink:href="#d" transform="matrix(1,0,0,1,-595.6820987654321,-107.30666666666653) translate(0 12.444444444444446)"/><path d="M-1049.6-166.42v76.22a5 5 0 0 0 5 5h191.38" stroke="#333" fill="none"/><path d="M-1049.6-166.92l.47-.03v.54h-.94v-.55z" stroke="#333" stroke-width=".05" fill="#333"/><path d="M-838.45-85.2l-14.27 4.64v-9.27z" stroke="#333" fill="#333"/><use xlink:href="#k" transform="matrix(1,0,0,1,-1033.78656433277,-107.86666666666665) translate(0 12.444444444444446)"/><use xlink:href="#l" transform="matrix(1,0,0,1,-1033.78656433277,-107.86666666666665) translate(55.22222222222223 12.444444444444446)"/><use xlink:href="#m" transform="matrix(1,0,0,1,-1033.78656433277,-107.86666666666665) translate(80.28395061728395 12.444444444444446)"/><use xlink:href="#n" transform="matrix(1,0,0,1,-1033.78656433277,-107.86666666666665) translate(106.20987654320987 12.444444444444446)"/><path d="M-939.13-253.6h85.9" stroke="#333" fill="none"/><path d="M-939.1-253.13h-.57l.04-.47-.04-.47h.55z" stroke="#333" stroke-width=".05" fill="#333"/><path d="M-838.45-253.6l-14.27 4.63v-9.27z" stroke="#333" fill="#333"/><use xlink:href="#o" transform="matrix(1,0,0,1,-942.2407780848022,-280.90192158229087) translate(0 12.444444444444446)"/><use xlink:href="#p" transform="matrix(1,0,0,1,-942.2407780848022,-280.90192158229087) translate(62.95679012345679 12.444444444444446)"/><path d="M-746.4-562.76a6.4 6.4 0 0 1 7.87 0L-636-482.53a3.9 3.9 0 0 1 0 6.16l-102.53 80.24a6.4 6.4 0 0 1-7.88 0l-102.53-80.24a3.9 3.9 0 0 1 0-6.16z" stroke="#225798" stroke-width="4" fill="#fff"/><use xlink:href="#q" transform="matrix(1,0,0,1,-847.8344999999997,-560.8135269150669) translate(29.57407407407407 83.79597222222223)"/><use xlink:href="#r" transform="matrix(1,0,0,1,-847.8344999999997,-560.8135269150669) translate(57.17901234567901 83.79597222222223)"/><use xlink:href="#s" transform="matrix(1,0,0,1,-847.8344999999997,-560.8135269150669) translate(84.78395061728396 83.79597222222223)"/><use xlink:href="#t" transform="matrix(1,0,0,1,-847.8344999999997,-560.8135269150669) translate(128.24074074074076 83.79597222222223)"/><use xlink:href="#u" transform="matrix(1,0,0,1,-847.8344999999997,-560.8135269150669) translate(143.05555555555554 83.79597222222223)"/><path d="M-1053.54-336.92a6.4 6.4 0 0 1 7.88 0l102.52 80.24a3.9 3.9 0 0 1 0 6.16l-102.52 80.24a6.4 6.4 0 0 1-7.88 0l-102.52-80.24a3.9 3.9 0 0 1 0-6.16z" stroke="#4397ff" stroke-width="4" fill="#fff"/><use xlink:href="#v" transform="matrix(1,0,0,1,-1155.562,-335.562) translate(44.41858024691358 70.59722222222223)"/><use xlink:href="#w" transform="matrix(1,0,0,1,-1155.562,-335.562) translate(102.59141975308643 70.59722222222223)"/><use xlink:href="#x" transform="matrix(1,0,0,1,-1155.562,-335.562) translate(150.83833333333334 70.59722222222223)"/><use xlink:href="#y" transform="matrix(1,0,0,1,-1155.562,-335.562) translate(20.671666666666663 91.93055555555557)"/><use xlink:href="#z" transform="matrix(1,0,0,1,-1155.562,-335.562) translate(83.78277777777778 91.93055555555557)"/><use xlink:href="#A" transform="matrix(1,0,0,1,-1155.562,-335.562) translate(161.70870370370372 91.93055555555557)"/><path d="M-437.4-167.96a6.4 6.4 0 0 1 7.87 0L-327-87.72a3.9 3.9 0 0 1 0 6.16L-429.53-1.32a6.4 6.4 0 0 1-7.88 0l-102.53-80.24a3.9 3.9 0 0 1 0-6.16z" stroke="#4397ff" stroke-width="4" fill="#fff"/><use xlink:href="#B" transform="matrix(1,0,0,1,-539.4295000000001,-166.60199999999986) translate(40.86919753086419 85.97222222222223)"/><use xlink:href="#C" transform="matrix(1,0,0,1,-539.4295000000001,-166.60199999999986) translate(103.98030864197531 85.97222222222223)"/><path d="M-433.47-200.68v12.98" stroke="#333" fill="none"/><path d="M-433-200.66h-.94v-.52h.95z" stroke="#333" stroke-width=".05" fill="#333"/><path d="M-433.47-172.94l-4.63-14.26h9.27z" stroke="#333" fill="#333"/><path d="M-742.47-392.27v19.37a5 5 0 0 1-5 5h-297.13a5 5 0 0 0-5 5v6.24" stroke="#333" fill="none"/><path d="M-742.47-392.77l.48-.03v.55h-.94v-.55z" stroke="#333" stroke-width=".05" fill="#333"/><path d="M-1049.6-341.9l-4.63-14.26h9.27z" stroke="#333" fill="#333"/><use xlink:href="#D" transform="matrix(1,0,0,1,-872.9166666666666,-390.5702607357267) translate(0 12.444444444444446)"/><path d="M-836.83-308.6a5 5 0 0 1 5-5h194.76a5 5 0 0 1 5 5v110a5 5 0 0 1-5 5h-194.76a5 5 0 0 1-5-5z" stroke="#000" stroke-opacity="0" stroke-width="2" fill="#3278ca"/><use xlink:href="#E" transform="matrix(1,0,0,1,-824.8324999999995,-301.5999999999999) translate(27.932098765432087 20.22222222222222)"/><use xlink:href="#F" transform="matrix(1,0,0,1,-824.8324999999995,-301.5999999999999) translate(99.88271604938272 20.22222222222222)"/><use xlink:href="#G" transform="matrix(1,0,0,1,-824.8324999999995,-301.5999999999999) translate(114.69753086419753 20.22222222222222)"/><use xlink:href="#H" transform="matrix(1,0,0,1,-824.8324999999995,-301.5999999999999) translate(27.339506172839492 41.55555555555556)"/><use xlink:href="#I" transform="matrix(1,0,0,1,-824.8324999999995,-301.5999999999999) translate(109.21604938271605 41.55555555555556)"/><use xlink:href="#J" transform="matrix(1,0,0,1,-824.8324999999995,-301.5999999999999) translate(128.96913580246914 41.55555555555556)"/><use xlink:href="#K" transform="matrix(1,0,0,1,-824.8324999999995,-301.5999999999999) translate(10.574074074074062 62.88888888888889)"/><use xlink:href="#L" transform="matrix(1,0,0,1,-824.8324999999995,-301.5999999999999) translate(87.51234567901234 62.88888888888889)"/><use xlink:href="#J" transform="matrix(1,0,0,1,-824.8324999999995,-301.5999999999999) translate(145.73456790123458 62.88888888888889)"/><use xlink:href="#M" transform="matrix(1,0,0,1,-824.8324999999995,-301.5999999999999) translate(48.154320987654316 84.22222222222223)"/><use xlink:href="#I" transform="matrix(1,0,0,1,-824.8324999999995,-301.5999999999999) translate(91.46296296296296 84.22222222222223)"/><use xlink:href="#N" transform="matrix(1,0,0,1,-824.8324999999995,-301.5999999999999) translate(111.21604938271605 84.22222222222223)"/><path d="M-631.07-253.6h84.74" stroke="#5e5e5e" stroke-width="2" fill="none"/><path d="M-631.04-252.63h-1.03v-1.94h1.03z" stroke="#5e5e5e" stroke-width=".05" fill="#5e5e5e"/><path d="M-531.07-253.6l-14.26 4.63v-9.27z" stroke="#5e5e5e" stroke-width="2" fill="#5e5e5e"/><path d="M-836.83-135a5 5 0 0 1 5-5h194.76a5 5 0 0 1 5 5v99.6a5 5 0 0 1-5 5h-194.76a5 5 0 0 1-5-5z" stroke="#000" stroke-opacity="0" stroke-width="2" fill="#3278ca"/><use xlink:href="#O" transform="matrix(1,0,0,1,-824.8324999999995,-128) translate(29.290123456790113 35.72222222222222)"/><use xlink:href="#b" transform="matrix(1,0,0,1,-824.8324999999995,-128) translate(60.895061728395056 35.72222222222222)"/><use xlink:href="#P" transform="matrix(1,0,0,1,-824.8324999999995,-128) translate(90.52469135802468 35.72222222222222)"/><use xlink:href="#Q" transform="matrix(1,0,0,1,-824.8324999999995,-128) translate(45.6358024691358 57.05555555555556)"/><path d="M-1140 110.2a5 5 0 0 1 5-5h194.76a5 5 0 0 1 5 5v99.6a5 5 0 0 1-5 5H-1135a5 5 0 0 1-5-5z" stroke="#000" stroke-opacity="0" stroke-width="2" fill="#a9afb8"/><use xlink:href="#R" transform="matrix(1,0,0,1,-1128,117.19999999999999) translate(9.067901234567884 35.72222222222222)"/><use xlink:href="#b" transform="matrix(1,0,0,1,-1128,117.19999999999999) translate(56.42592592592592 35.72222222222222)"/><use xlink:href="#S" transform="matrix(1,0,0,1,-1128,117.19999999999999) translate(86.05555555555556 35.72222222222222)"/><use xlink:href="#J" transform="matrix(1,0,0,1,-1128,117.19999999999999) translate(147.24074074074076 35.72222222222222)"/><use xlink:href="#T" transform="matrix(1,0,0,1,-1128,117.19999999999999) translate(45.14197530864197 57.05555555555556)"/><path d="M-433.47 3.04V81.5" stroke="#5e5e5e" stroke-width="2" fill="none"/><path d="M-433.47 2.04l.98-.06v1.1h-1.94v-1.1z" stroke="#5e5e5e" stroke-width=".05" fill="#5e5e5e"/><path d="M-433.47 96.76l-4.63-14.26h9.27z" stroke="#5e5e5e" stroke-width="2" fill="#5e5e5e"/><use xlink:href="#U" transform="matrix(1,0,0,1,-425.46750000000003,8.333333333333336) translate(0.005000000000000782 14.222222222222223)"/><path d="M-535.85 105a5 5 0 0 1 5-5h194.77a5 5 0 0 1 5 5v110a5 5 0 0 1-5 5h-194.77a5 5 0 0 1-5-5z" stroke="#000" stroke-opacity="0" stroke-width="2" fill="#3278ca"/><use xlink:href="#V" transform="matrix(1,0,0,1,-523.8500000000001,112) translate(14.055555555555571 29.22222222222222)"/><use xlink:href="#W" transform="matrix(1,0,0,1,-523.8500000000001,112) translate(107.73456790123456 29.22222222222222)"/><use xlink:href="#X" transform="matrix(1,0,0,1,-523.8500000000001,112) translate(1.6604938271605079 50.55555555555555)"/><use xlink:href="#Y" transform="matrix(1,0,0,1,-523.8500000000001,112) translate(36.2283950617284 50.55555555555555)"/><use xlink:href="#Z" transform="matrix(1,0,0,1,-523.8500000000001,112) translate(78.64814814814815 71.88888888888889)"/><path d="M-734.45-29.4v78.2a6 6 0 0 0 6 6h288.98a6 6 0 0 1 6 6v20.7" stroke="#5e5e5e" stroke-width="2" fill="none"/><path d="M-733.48-29.37h-1.94v-1.03h1.94z" stroke="#5e5e5e" stroke-width=".05" fill="#5e5e5e"/><path d="M-433.47 96.76l-4.63-14.26h9.27z" stroke="#5e5e5e" stroke-width="2" fill="#5e5e5e"/><path d="M-826.47 305a5 5 0 0 1 5-5h194.77a5 5 0 0 1 5 5v99.6a5 5 0 0 1-5 5h-194.77a5 5 0 0 1-5-5z" stroke="#000" stroke-opacity="0" stroke-width="2" fill="#a9afb8"/><g><use xlink:href="#aa" transform="matrix(1,0,0,1,-814.4674999999997,312) translate(25.388888888888886 46.47222222222222)"/><use xlink:href="#ab" transform="matrix(1,0,0,1,-814.4674999999997,312) translate(61.9320987654321 46.47222222222222)"/><use xlink:href="#ac" transform="matrix(1,0,0,1,-814.4674999999997,312) translate(81.68518518518519 46.47222222222222)"/></g><path d="M-535.85 494.6a5 5 0 0 1 5-5h194.77a5 5 0 0 1 5 5v99.6a5 5 0 0 1-5 5h-194.77a5 5 0 0 1-5-5z" stroke="#000" stroke-opacity="0" stroke-width="2" fill="#fc9432"/><g><use xlink:href="#ad" transform="matrix(1,0,0,1,-523.8500000000001,501.6) translate(11.265432098765416 35.72222222222222)"/><use xlink:href="#ae" transform="matrix(1,0,0,1,-523.8500000000001,501.6) translate(95.0679012345679 35.72222222222222)"/><use xlink:href="#af" transform="matrix(1,0,0,1,-523.8500000000001,501.6) translate(73.21604938271605 57.05555555555556)"/></g><path d="M-826.47 494.6a5 5 0 0 1 5-5h194.77a5 5 0 0 1 5 5v99.6a5 5 0 0 1-5 5h-194.77a5 5 0 0 1-5-5z" stroke="#000" stroke-opacity="0" stroke-width="2" fill="#fc9432"/><g><use xlink:href="#ag" transform="matrix(1,0,0,1,-814.4674999999997,501.6) translate(7.635802469135783 24.97222222222222)"/><use xlink:href="#ah" transform="matrix(1,0,0,1,-814.4674999999997,501.6) translate(50.993827160493815 24.97222222222222)"/><use xlink:href="#ai" transform="matrix(1,0,0,1,-814.4674999999997,501.6) translate(85.56172839506172 24.97222222222222)"/><use xlink:href="#ab" transform="matrix(1,0,0,1,-814.4674999999997,501.6) translate(128.91975308641975 24.97222222222222)"/><use xlink:href="#J" transform="matrix(1,0,0,1,-814.4674999999997,501.6) translate(148.67283950617286 24.97222222222222)"/><use xlink:href="#aj" transform="matrix(1,0,0,1,-814.4674999999997,501.6) translate(44.623456790123456 46.30555555555556)"/><use xlink:href="#ak" transform="matrix(1,0,0,1,-814.4674999999997,501.6) translate(72.17901234567901 46.30555555555556)"/><use xlink:href="#J" transform="matrix(1,0,0,1,-814.4674999999997,501.6) translate(111.68518518518519 46.30555555555556)"/><use xlink:href="#al" transform="matrix(1,0,0,1,-814.4674999999997,501.6) translate(34.401234567901234 67.6388888888889)"/></g><path d="M-1140 494.6a5 5 0 0 1 5-5h194.76a5 5 0 0 1 5 5v99.6a5 5 0 0 1-5 5H-1135a5 5 0 0 1-5-5z" stroke="#000" stroke-opacity="0" stroke-width="2" fill="#fc9432"/><g><use xlink:href="#am" transform="matrix(1,0,0,1,-1128,501.6) translate(7.117283950617264 35.72222222222222)"/><use xlink:href="#I" transform="matrix(1,0,0,1,-1128,501.6) translate(82.08024691358025 35.72222222222222)"/><use xlink:href="#b" transform="matrix(1,0,0,1,-1128,501.6) translate(101.83333333333334 35.72222222222222)"/><use xlink:href="#an" transform="matrix(1,0,0,1,-1128,501.6) translate(131.462962962963 35.72222222222222)"/><use xlink:href="#ao" transform="matrix(1,0,0,1,-1128,501.6) translate(8.574074074074076 57.05555555555556)"/><use xlink:href="#I" transform="matrix(1,0,0,1,-1128,501.6) translate(57.85802469135803 57.05555555555556)"/><use xlink:href="#ap" transform="matrix(1,0,0,1,-1128,501.6) translate(77.61111111111111 57.05555555555556)"/><use xlink:href="#af" transform="matrix(1,0,0,1,-1128,501.6) translate(137.85802469135803 57.05555555555556)"/></g><path d="M-1037.62 215.8v65.7" stroke="#5e5e5e" stroke-width="2" fill="none"/><path d="M-1036.64 215.83h-1.95v-1.03h1.96z" stroke="#5e5e5e" stroke-width=".05" fill="#5e5e5e"/><path d="M-1037.62 296.76l-4.63-14.26h9.27z" stroke="#5e5e5e" stroke-width="2" fill="#5e5e5e"/><path d="M-1140 305a5 5 0 0 1 5-5h194.76a5 5 0 0 1 5 5v99.6a5 5 0 0 1-5 5H-1135a5 5 0 0 1-5-5z" stroke="#000" stroke-opacity="0" stroke-width="2" fill="#a9afb8"/><g><use xlink:href="#aq" transform="matrix(1,0,0,1,-1128,312) translate(39.24074074074074 46.47222222222222)"/><use xlink:href="#ar" transform="matrix(1,0,0,1,-1128,312) translate(82.5493827160494 46.47222222222222)"/><use xlink:href="#as" transform="matrix(1,0,0,1,-1128,312) translate(107.24074074074073 46.47222222222222)"/></g><path d="M-934.24 354.8h89.27" stroke="#5e5e5e" stroke-width="2" fill="none"/><path d="M-934.2 355.77h-1.03v-1.94h1.02z" stroke="#5e5e5e" stroke-width=".05" fill="#5e5e5e"/><path d="M-829.7 354.8l-14.27 4.63v-9.26z" stroke="#5e5e5e" stroke-width="2" fill="#5e5e5e"/><path d="M-620.7 354.8h66.35" stroke="#5e5e5e" stroke-width="2" fill="none"/><path d="M-620.68 355.77h-1.02v-1.94h1.02z" stroke="#5e5e5e" stroke-width=".05" fill="#5e5e5e"/><path d="M-539.1 354.8l-14.25 4.63v-9.26z" stroke="#5e5e5e" stroke-width="2" fill="#5e5e5e"/><path d="M-433.47 410.6v60.5" stroke="#5e5e5e" stroke-width="2" fill="none"/><path d="M-432.5 410.63h-1.94v-1.03h1.95z" stroke="#5e5e5e" stroke-width=".05" fill="#5e5e5e"/><path d="M-433.47 486.36l-4.63-14.26h9.27z" stroke="#5e5e5e" stroke-width="2" fill="#5e5e5e"/><path d="M-536.85 544.4h-66.35" stroke="#5e5e5e" stroke-width="2" fill="none"/><path d="M-535.85 545.38h-1.03v-1.96h1.03z" stroke="#5e5e5e" stroke-width=".05" fill="#5e5e5e"/><path d="M-618.47 544.4l14.27-4.63v9.26z" stroke="#5e5e5e" stroke-width="2" fill="#5e5e5e"/><path d="M-827.47 544.4h-89.26" stroke="#5e5e5e" stroke-width="2" fill="none"/><path d="M-826.47 545.38h-1.02v-1.96h1.03z" stroke="#5e5e5e" stroke-width=".05" fill="#5e5e5e"/><path d="M-932 544.4l14.27-4.63v9.26z" stroke="#5e5e5e" stroke-width="2" fill="#5e5e5e"/><path d="M-826.47 110.2a5 5 0 0 1 5-5h194.77a5 5 0 0 1 5 5v99.6a5 5 0 0 1-5 5h-194.77a5 5 0 0 1-5-5z" stroke="#000" stroke-opacity="0" stroke-width="2" fill="#a9afb8"/><g><use xlink:href="#at" transform="matrix(1,0,0,1,-814.4674999999997,117.19999999999999) translate(22.42592592592591 46.47222222222222)"/><use xlink:href="#au" transform="matrix(1,0,0,1,-814.4674999999997,117.19999999999999) translate(119.06790123456791 46.47222222222222)"/></g><path d="M-536.85 160h-66.35" stroke="#5e5e5e" stroke-width="2" fill="none"/><path d="M-535.85 160.97h-1.03v-1.94h1.03z" stroke="#5e5e5e" stroke-width=".05" fill="#5e5e5e"/><path d="M-618.47 160l14.27-4.63v9.26z" stroke="#5e5e5e" stroke-width="2" fill="#5e5e5e"/><path d="M-827.47 160h-89.26" stroke="#5e5e5e" stroke-width="2" fill="none"/><path d="M-826.47 160.97h-1.02v-1.94h1.03z" stroke="#5e5e5e" stroke-width=".05" fill="#5e5e5e"/><path d="M-932 160l14.27-4.63v9.26z" stroke="#5e5e5e" stroke-width="2" fill="#5e5e5e"/><path d="M-535.85 305a5 5 0 0 1 5-5h194.77a5 5 0 0 1 5 5v99.6a5 5 0 0 1-5 5h-194.77a5 5 0 0 1-5-5z" stroke="#000" stroke-opacity="0" stroke-width="2" fill="#fc9432"/><g><use xlink:href="#av" transform="matrix(1,0,0,1,-523.8500000000001,312) translate(9.611111111111086 35.72222222222222)"/><use xlink:href="#aw" transform="matrix(1,0,0,1,-523.8500000000001,312) translate(80.67283950617283 35.72222222222222)"/><use xlink:href="#ax" transform="matrix(1,0,0,1,-523.8500000000001,312) translate(52.54938271604938 57.05555555555556)"/><use xlink:href="#F" transform="matrix(1,0,0,1,-523.8500000000001,312) translate(88.99382716049382 57.05555555555556)"/><use xlink:href="#ay" transform="matrix(1,0,0,1,-523.8500000000001,312) translate(103.80864197530865 57.05555555555556)"/></g><defs><path fill="#fff" d="M185-189c-5-48-123-54-124 2 14 75 158 14 163 119 3 78-121 87-175 55-17-10-28-26-33-46l33-7c5 56 141 63 141-1 0-78-155-14-162-118-5-82 145-84 179-34 5 7 8 16 11 25" id="az"/><path fill="#fff" d="M59-47c-2 24 18 29 38 22v24C64 9 27 4 27-40v-127H5v-23h24l9-43h21v43h35v23H59v120" id="aA"/><path fill="#fff" d="M141-36C126-15 110 5 73 4 37 3 15-17 15-53c-1-64 63-63 125-63 3-35-9-54-41-54-24 1-41 7-42 31l-33-3c5-37 33-52 76-52 45 0 72 20 72 64v82c-1 20 7 32 28 27v20c-31 9-61-2-59-35zM48-53c0 20 12 33 32 33 41-3 63-29 60-74-43 2-92-5-92 41" id="aB"/><path fill="#fff" d="M114-163C36-179 61-72 57 0H25l-1-190h30c1 12-1 29 2 39 6-27 23-49 58-41v29" id="aC"/><path fill="#fff" d="M24-231v-30h32v30H24zM24 0v-190h32V0H24" id="aD"/><path fill="#fff" d="M117-194c89-4 53 116 60 194h-32v-121c0-31-8-49-39-48C34-167 62-67 57 0H25l-1-190h30c1 10-1 24 2 32 11-22 29-35 61-36" id="aE"/><path fill="#fff" d="M177-190C167-65 218 103 67 71c-23-6-38-20-44-43l32-5c15 47 100 32 89-28v-30C133-14 115 1 83 1 29 1 15-40 15-95c0-56 16-97 71-98 29-1 48 16 59 35 1-10 0-23 2-32h30zM94-22c36 0 50-32 50-73 0-42-14-75-50-75-39 0-46 34-46 75s6 73 46 73" id="aF"/><g id="a"><use transform="matrix(0.04938271604938272,0,0,0.04938271604938272,0,0)" xlink:href="#az"/><use transform="matrix(0.04938271604938272,0,0,0.04938271604938272,11.851851851851853,0)" xlink:href="#aA"/><use transform="matrix(0.04938271604938272,0,0,0.04938271604938272,16.790123456790127,0)" xlink:href="#aB"/><use transform="matrix(0.04938271604938272,0,0,0.04938271604938272,26.666666666666668,0)" xlink:href="#aC"/><use transform="matrix(0.04938271604938272,0,0,0.04938271604938272,32.543209876543216,0)" xlink:href="#aA"/><use transform="matrix(0.04938271604938272,0,0,0.04938271604938272,37.48148148148149,0)" xlink:href="#aD"/><use transform="matrix(0.04938271604938272,0,0,0.04938271604938272,41.38271604938272,0)" xlink:href="#aE"/><use transform="matrix(0.04938271604938272,0,0,0.04938271604938272,51.25925925925927,0)" xlink:href="#aF"/></g><path fill="#fff" d="M106-169C34-169 62-67 57 0H25v-261h32l-1 103c12-21 28-36 61-36 89 0 53 116 60 194h-32v-121c2-32-8-49-39-48" id="aG"/><path fill="#fff" d="M100-194c63 0 86 42 84 106H49c0 40 14 67 53 68 26 1 43-12 49-29l28 8c-11 28-37 45-77 45C44 4 14-33 15-96c1-61 26-98 85-98zm52 81c6-60-76-77-97-28-3 7-6 17-6 28h103" id="aH"/><g id="b"><use transform="matrix(0.04938271604938272,0,0,0.04938271604938272,0,0)" xlink:href="#aA"/><use transform="matrix(0.04938271604938272,0,0,0.04938271604938272,4.938271604938272,0)" xlink:href="#aG"/><use transform="matrix(0.04938271604938272,0,0,0.04938271604938272,14.814814814814817,0)" xlink:href="#aH"/></g><path fill="#fff" d="M205 0l-28-72H64L36 0H1l101-248h38L239 0h-34zm-38-99l-47-123c-12 45-31 82-46 123h93" id="aI"/><path fill="#fff" d="M115-194c55 1 70 41 70 98S169 2 115 4C84 4 66-9 55-30l1 105H24l-1-265h31l2 30c10-21 28-34 59-34zm-8 174c40 0 45-34 45-75s-6-73-45-74c-42 0-51 32-51 76 0 43 10 73 51 73" id="aJ"/><g id="c"><use transform="matrix(0.04938271604938272,0,0,0.04938271604938272,0,0)" xlink:href="#aI"/><use transform="matrix(0.04938271604938272,0,0,0.04938271604938272,11.851851851851853,0)" xlink:href="#aJ"/><use transform="matrix(0.04938271604938272,0,0,0.04938271604938272,21.7283950617284,0)" xlink:href="#aJ"/></g><path fill="#333" d="M137-103V0h-34v-103L8-248h37l75 118 75-118h37" id="aK"/><path fill="#333" d="M100-194c63 0 86 42 84 106H49c0 40 14 67 53 68 26 1 43-12 49-29l28 8c-11 28-37 45-77 45C44 4 14-33 15-96c1-61 26-98 85-98zm52 81c6-60-76-77-97-28-3 7-6 17-6 28h103" id="aL"/><path fill="#333" d="M135-143c-3-34-86-38-87 0 15 53 115 12 119 90S17 21 10-45l28-5c4 36 97 45 98 0-10-56-113-15-118-90-4-57 82-63 122-42 12 7 21 19 24 35" id="aM"/><g id="d"><use transform="matrix(0.04320987654320988,0,0,0.04320987654320988,0,0)" xlink:href="#aK"/><use transform="matrix(0.04320987654320988,0,0,0.04320987654320988,8.944444444444446,0)" xlink:href="#aL"/><use transform="matrix(0.04320987654320988,0,0,0.04320987654320988,17.586419753086425,0)" xlink:href="#aM"/></g><path fill="#fff" d="M232-93c-1 65-40 97-104 97C67 4 28-28 28-90v-158h33c8 89-33 224 67 224 102 0 64-133 71-224h33v155" id="aN"/><path fill="#fff" d="M85-194c31 0 48 13 60 33l-1-100h32l1 261h-30c-2-10 0-23-3-31C134-8 116 4 85 4 32 4 16-35 15-94c0-66 23-100 70-100zm9 24c-40 0-46 34-46 75 0 40 6 74 45 74 42 0 51-32 51-76 0-42-9-74-50-73" id="aO"/><g id="e"><use transform="matrix(0.04938271604938272,0,0,0.04938271604938272,0,0)" xlink:href="#aN"/><use transform="matrix(0.04938271604938272,0,0,0.04938271604938272,12.790123456790125,0)" xlink:href="#aE"/><use transform="matrix(0.04938271604938272,0,0,0.04938271604938272,22.66666666666667,0)" xlink:href="#aO"/><use transform="matrix(0.04938271604938272,0,0,0.04938271604938272,32.543209876543216,0)" xlink:href="#aH"/><use transform="matrix(0.04938271604938272,0,0,0.04938271604938272,42.41975308641976,0)" xlink:href="#aC"/></g><path fill="#fff" d="M210-169c-67 3-38 105-44 169h-31v-121c0-29-5-50-35-48C34-165 62-65 56 0H25l-1-190h30c1 10-1 24 2 32 10-44 99-50 107 0 11-21 27-35 58-36 85-2 47 119 55 194h-31v-121c0-29-5-49-35-48" id="aP"/><path fill="#fff" d="M84 4C-5 8 30-112 23-190h32v120c0 31 7 50 39 49 72-2 45-101 50-169h31l1 190h-30c-1-10 1-25-2-33-11 22-28 36-60 37" id="aQ"/><g id="f"><use transform="matrix(0.04938271604938272,0,0,0.04938271604938272,0,0)" xlink:href="#aP"/><use transform="matrix(0.04938271604938272,0,0,0.04938271604938272,14.765432098765434,0)" xlink:href="#aH"/><use transform="matrix(0.04938271604938272,0,0,0.04938271604938272,24.641975308641978,0)" xlink:href="#aE"/><use transform="matrix(0.04938271604938272,0,0,0.04938271604938272,34.51851851851852,0)" xlink:href="#aQ"/></g><path fill="#fff" d="M109-170H84l-4-78h32zm-65 0H19l-4-78h33" id="aR"/><path fill="#fff" d="M30-248c87 1 191-15 191 75 0 78-77 80-158 76V0H30v-248zm33 125c57 0 124 11 124-50 0-59-68-47-124-48v98" id="aS"/><path fill="#fff" d="M100-194c62-1 85 37 85 99 1 63-27 99-86 99S16-35 15-95c0-66 28-99 85-99zM99-20c44 1 53-31 53-75 0-43-8-75-51-75s-53 32-53 75 10 74 51 75" id="aT"/><path fill="#fff" d="M101-234c-31-9-42 10-38 44h38v23H63V0H32v-167H5v-23h27c-7-52 17-82 69-68v24" id="aU"/><path fill="#fff" d="M24 0v-261h32V0H24" id="aV"/><path fill="#fff" d="M135-143c-3-34-86-38-87 0 15 53 115 12 119 90S17 21 10-45l28-5c4 36 97 45 98 0-10-56-113-15-118-90-4-57 82-63 122-42 12 7 21 19 24 35" id="aW"/><g id="g"><use transform="matrix(0.04938271604938272,0,0,0.04938271604938272,0,0)" xlink:href="#aR"/><use transform="matrix(0.04938271604938272,0,0,0.04938271604938272,6.271604938271605,0)" xlink:href="#aS"/><use transform="matrix(0.04938271604938272,0,0,0.04938271604938272,18.12345679012346,0)" xlink:href="#aC"/><use transform="matrix(0.04938271604938272,0,0,0.04938271604938272,24.000000000000004,0)" xlink:href="#aT"/><use transform="matrix(0.04938271604938272,0,0,0.04938271604938272,33.876543209876544,0)" xlink:href="#aU"/><use transform="matrix(0.04938271604938272,0,0,0.04938271604938272,38.81481481481482,0)" xlink:href="#aD"/><use transform="matrix(0.04938271604938272,0,0,0.04938271604938272,42.71604938271605,0)" xlink:href="#aV"/><use transform="matrix(0.04938271604938272,0,0,0.04938271604938272,46.617283950617285,0)" xlink:href="#aW"/><use transform="matrix(0.04938271604938272,0,0,0.04938271604938272,55.50617283950618,0)" xlink:href="#aR"/></g><path fill="#fff" d="M96-169c-40 0-48 33-48 73s9 75 48 75c24 0 41-14 43-38l32 2c-6 37-31 61-74 61-59 0-76-41-82-99-10-93 101-131 147-64 4 7 5 14 7 22l-32 3c-4-21-16-35-41-35" id="aX"/><g id="h"><use transform="matrix(0.04938271604938272,0,0,0.04938271604938272,0,0)" xlink:href="#aW"/><use transform="matrix(0.04938271604938272,0,0,0.04938271604938272,8.88888888888889,0)" xlink:href="#aH"/><use transform="matrix(0.04938271604938272,0,0,0.04938271604938272,18.765432098765434,0)" xlink:href="#aV"/><use transform="matrix(0.04938271604938272,0,0,0.04938271604938272,22.666666666666668,0)" xlink:href="#aH"/><use transform="matrix(0.04938271604938272,0,0,0.04938271604938272,32.543209876543216,0)" xlink:href="#aX"/><use transform="matrix(0.04938271604938272,0,0,0.04938271604938272,41.4320987654321,0)" xlink:href="#aA"/></g><path fill="#fff" d="M206 0h-36l-40-164L89 0H53L-1-190h32L70-26l43-164h34l41 164 42-164h31" id="aY"/><g id="i"><use transform="matrix(0.04938271604938272,0,0,0.04938271604938272,0,0)" xlink:href="#aE"/><use transform="matrix(0.04938271604938272,0,0,0.04938271604938272,9.876543209876544,0)" xlink:href="#aH"/><use transform="matrix(0.04938271604938272,0,0,0.04938271604938272,19.75308641975309,0)" xlink:href="#aY"/></g><g id="j"><use transform="matrix(0.04938271604938272,0,0,0.04938271604938272,0,0)" xlink:href="#aJ"/><use transform="matrix(0.04938271604938272,0,0,0.04938271604938272,9.876543209876544,0)" xlink:href="#aC"/><use transform="matrix(0.04938271604938272,0,0,0.04938271604938272,15.753086419753087,0)" xlink:href="#aT"/><use transform="matrix(0.04938271604938272,0,0,0.04938271604938272,25.629629629629633,0)" xlink:href="#aU"/><use transform="matrix(0.04938271604938272,0,0,0.04938271604938272,30.567901234567906,0)" xlink:href="#aD"/><use transform="matrix(0.04938271604938272,0,0,0.04938271604938272,34.46913580246914,0)" xlink:href="#aV"/></g><path fill="#333" d="M240 0l2-218c-23 76-54 145-80 218h-23L58-218 59 0H30v-248h44l77 211c21-75 51-140 76-211h43V0h-30" id="aZ"/><path fill="#333" d="M141-36C126-15 110 5 73 4 37 3 15-17 15-53c-1-64 63-63 125-63 3-35-9-54-41-54-24 1-41 7-42 31l-33-3c5-37 33-52 76-52 45 0 72 20 72 64v82c-1 20 7 32 28 27v20c-31 9-61-2-59-35zM48-53c0 20 12 33 32 33 41-3 63-29 60-74-43 2-92-5-92 41" id="ba"/><path fill="#333" d="M117-194c89-4 53 116 60 194h-32v-121c0-31-8-49-39-48C34-167 62-67 57 0H25l-1-190h30c1 10-1 24 2 32 11-22 29-35 61-36" id="bb"/><path fill="#333" d="M84 4C-5 8 30-112 23-190h32v120c0 31 7 50 39 49 72-2 45-101 50-169h31l1 190h-30c-1-10 1-25-2-33-11 22-28 36-60 37" id="bc"/><path fill="#333" d="M24 0v-261h32V0H24" id="bd"/><g id="k"><use transform="matrix(0.04320987654320988,0,0,0.04320987654320988,0,0)" xlink:href="#aZ"/><use transform="matrix(0.04320987654320988,0,0,0.04320987654320988,12.919753086419755,0)" xlink:href="#ba"/><use transform="matrix(0.04320987654320988,0,0,0.04320987654320988,21.56172839506173,0)" xlink:href="#bb"/><use transform="matrix(0.04320987654320988,0,0,0.04320987654320988,30.203703703703713,0)" xlink:href="#bc"/><use transform="matrix(0.04320987654320988,0,0,0.04320987654320988,38.845679012345684,0)" xlink:href="#ba"/><use transform="matrix(0.04320987654320988,0,0,0.04320987654320988,47.48765432098766,0)" xlink:href="#bd"/></g><path fill="#333" d="M59-47c-2 24 18 29 38 22v24C64 9 27 4 27-40v-127H5v-23h24l9-43h21v43h35v23H59v120" id="be"/><g id="l"><use transform="matrix(0.04320987654320988,0,0,0.04320987654320988,0,0)" xlink:href="#aM"/><use transform="matrix(0.04320987654320988,0,0,0.04320987654320988,7.777777777777779,0)" xlink:href="#aL"/><use transform="matrix(0.04320987654320988,0,0,0.04320987654320988,16.419753086419753,0)" xlink:href="#be"/></g><path fill="#333" d="M106-169C34-169 62-67 57 0H25v-261h32l-1 103c12-21 28-36 61-36 89 0 53 116 60 194h-32v-121c2-32-8-49-39-48" id="bf"/><g id="m"><use transform="matrix(0.04320987654320988,0,0,0.04320987654320988,0,0)" xlink:href="#be"/><use transform="matrix(0.04320987654320988,0,0,0.04320987654320988,4.320987654320988,0)" xlink:href="#bf"/><use transform="matrix(0.04320987654320988,0,0,0.04320987654320988,12.962962962962964,0)" xlink:href="#aL"/></g><path fill="#333" d="M24-231v-30h32v30H24zM24 0v-190h32V0H24" id="bg"/><path fill="#333" d="M177-190C167-65 218 103 67 71c-23-6-38-20-44-43l32-5c15 47 100 32 89-28v-30C133-14 115 1 83 1 29 1 15-40 15-95c0-56 16-97 71-98 29-1 48 16 59 35 1-10 0-23 2-32h30zM94-22c36 0 50-32 50-73 0-42-14-75-50-75-39 0-46 34-46 75s6 73 46 73" id="bh"/><g id="n"><use transform="matrix(0.04320987654320988,0,0,0.04320987654320988,0,0)" xlink:href="#aM"/><use transform="matrix(0.04320987654320988,0,0,0.04320987654320988,7.777777777777779,0)" xlink:href="#aL"/><use transform="matrix(0.04320987654320988,0,0,0.04320987654320988,16.419753086419753,0)" xlink:href="#be"/><use transform="matrix(0.04320987654320988,0,0,0.04320987654320988,20.74074074074074,0)" xlink:href="#be"/><use transform="matrix(0.04320987654320988,0,0,0.04320987654320988,25.061728395061728,0)" xlink:href="#bg"/><use transform="matrix(0.04320987654320988,0,0,0.04320987654320988,28.47530864197531,0)" xlink:href="#bb"/><use transform="matrix(0.04320987654320988,0,0,0.04320987654320988,37.117283950617285,0)" xlink:href="#bh"/><use transform="matrix(0.04320987654320988,0,0,0.04320987654320988,45.75925925925927,0)" xlink:href="#aM"/></g><path fill="#333" d="M212-179c-10-28-35-45-73-45-59 0-87 40-87 99 0 60 29 101 89 101 43 0 62-24 78-52l27 14C228-24 195 4 139 4 59 4 22-46 18-125c-6-104 99-153 187-111 19 9 31 26 39 46" id="bi"/><path fill="#333" d="M114-163C36-179 61-72 57 0H25l-1-190h30c1 12-1 29 2 39 6-27 23-49 58-41v29" id="bj"/><g id="o"><use transform="matrix(0.04320987654320988,0,0,0.04320987654320988,0,0)" xlink:href="#bi"/><use transform="matrix(0.04320987654320988,0,0,0.04320987654320988,11.19135802469136,0)" xlink:href="#bj"/><use transform="matrix(0.04320987654320988,0,0,0.04320987654320988,16.333333333333336,0)" xlink:href="#aL"/><use transform="matrix(0.04320987654320988,0,0,0.04320987654320988,24.97530864197531,0)" xlink:href="#ba"/><use transform="matrix(0.04320987654320988,0,0,0.04320987654320988,33.617283950617285,0)" xlink:href="#be"/><use transform="matrix(0.04320987654320988,0,0,0.04320987654320988,37.93827160493827,0)" xlink:href="#bg"/><use transform="matrix(0.04320987654320988,0,0,0.04320987654320988,41.351851851851855,0)" xlink:href="#bb"/><use transform="matrix(0.04320987654320988,0,0,0.04320987654320988,49.99382716049383,0)" xlink:href="#bh"/></g><path fill="#333" d="M115-194c55 1 70 41 70 98S169 2 115 4C84 4 66-9 55-30l1 105H24l-1-265h31l2 30c10-21 28-34 59-34zm-8 174c40 0 45-34 45-75s-6-73-45-74c-42 0-51 32-51 76 0 43 10 73 51 73" id="bk"/><path fill="#333" d="M100-194c62-1 85 37 85 99 1 63-27 99-86 99S16-35 15-95c0-66 28-99 85-99zM99-20c44 1 53-31 53-75 0-43-8-75-51-75s-53 32-53 75 10 74 51 75" id="bl"/><path fill="#333" d="M101-234c-31-9-42 10-38 44h38v23H63V0H32v-167H5v-23h27c-7-52 17-82 69-68v24" id="bm"/><g id="p"><use transform="matrix(0.04320987654320988,0,0,0.04320987654320988,0,0)" xlink:href="#bk"/><use transform="matrix(0.04320987654320988,0,0,0.04320987654320988,8.641975308641976,0)" xlink:href="#bj"/><use transform="matrix(0.04320987654320988,0,0,0.04320987654320988,13.783950617283953,0)" xlink:href="#bl"/><use transform="matrix(0.04320987654320988,0,0,0.04320987654320988,22.425925925925934,0)" xlink:href="#bm"/><use transform="matrix(0.04320987654320988,0,0,0.04320987654320988,26.746913580246915,0)" xlink:href="#bg"/><use transform="matrix(0.04320987654320988,0,0,0.04320987654320988,30.1604938271605,0)" xlink:href="#bd"/></g><path fill="#333" d="M30-248c118-7 216 8 213 122C240-48 200 0 122 0H30v-248zM63-27c89 8 146-16 146-99s-60-101-146-95v194" id="bn"/><g id="q"><use transform="matrix(0.04938271604938272,0,0,0.04938271604938272,0,0)" xlink:href="#bn"/><use transform="matrix(0.04938271604938272,0,0,0.04938271604938272,12.790123456790125,0)" xlink:href="#bl"/></g><path fill="#333" d="M206 0h-36l-40-164L89 0H53L-1-190h32L70-26l43-164h34l41 164 42-164h31" id="bo"/><g id="r"><use transform="matrix(0.04938271604938272,0,0,0.04938271604938272,0,0)" xlink:href="#bo"/><use transform="matrix(0.04938271604938272,0,0,0.04938271604938272,12.790123456790125,0)" xlink:href="#aL"/></g><path fill="#333" d="M108 0H70L1-190h34L89-25l56-165h34" id="bp"/><g id="s"><use transform="matrix(0.04938271604938272,0,0,0.04938271604938272,0,0)" xlink:href="#bf"/><use transform="matrix(0.04938271604938272,0,0,0.04938271604938272,9.876543209876544,0)" xlink:href="#ba"/><use transform="matrix(0.04938271604938272,0,0,0.04938271604938272,19.75308641975309,0)" xlink:href="#bp"/><use transform="matrix(0.04938271604938272,0,0,0.04938271604938272,28.641975308641978,0)" xlink:href="#aL"/></g><use transform="matrix(0.04938271604938272,0,0,0.04938271604938272,0,0)" xlink:href="#ba" id="t"/><g id="u"><use transform="matrix(0.04938271604938272,0,0,0.04938271604938272,0,0)" xlink:href="#bk"/><use transform="matrix(0.04938271604938272,0,0,0.04938271604938272,9.876543209876544,0)" xlink:href="#bj"/><use transform="matrix(0.04938271604938272,0,0,0.04938271604938272,15.753086419753087,0)" xlink:href="#bl"/><use transform="matrix(0.04938271604938272,0,0,0.04938271604938272,25.629629629629633,0)" xlink:href="#bm"/><use transform="matrix(0.04938271604938272,0,0,0.04938271604938272,30.567901234567906,0)" xlink:href="#bg"/><use transform="matrix(0.04938271604938272,0,0,0.04938271604938272,34.46913580246914,0)" xlink:href="#bd"/></g><g id="v"><use transform="matrix(0.04938271604938272,0,0,0.04938271604938272,0,0)" xlink:href="#bi"/><use transform="matrix(0.04938271604938272,0,0,0.04938271604938272,12.790123456790125,0)" xlink:href="#bj"/><use transform="matrix(0.04938271604938272,0,0,0.04938271604938272,18.666666666666668,0)" xlink:href="#aL"/><use transform="matrix(0.04938271604938272,0,0,0.04938271604938272,28.543209876543212,0)" xlink:href="#ba"/><use transform="matrix(0.04938271604938272,0,0,0.04938271604938272,38.41975308641976,0)" xlink:href="#be"/><use transform="matrix(0.04938271604938272,0,0,0.04938271604938272,43.35802469135803,0)" xlink:href="#aL"/></g><path fill="#333" d="M68-38c1 34 0 65-14 84H32c9-13 17-26 17-46H33v-38h35" id="bq"/><g id="w"><use transform="matrix(0.04938271604938272,0,0,0.04938271604938272,0,0)" xlink:href="#bk"/><use transform="matrix(0.04938271604938272,0,0,0.04938271604938272,9.876543209876544,0)" xlink:href="#bj"/><use transform="matrix(0.04938271604938272,0,0,0.04938271604938272,15.753086419753087,0)" xlink:href="#bl"/><use transform="matrix(0.04938271604938272,0,0,0.04938271604938272,25.629629629629633,0)" xlink:href="#bm"/><use transform="matrix(0.04938271604938272,0,0,0.04938271604938272,30.567901234567906,0)" xlink:href="#bg"/><use transform="matrix(0.04938271604938272,0,0,0.04938271604938272,34.46913580246914,0)" xlink:href="#bd"/><use transform="matrix(0.04938271604938272,0,0,0.04938271604938272,38.370370370370374,0)" xlink:href="#bq"/></g><g id="x"><use transform="matrix(0.04938271604938272,0,0,0.04938271604938272,0,0)" xlink:href="#bl"/><use transform="matrix(0.04938271604938272,0,0,0.04938271604938272,9.876543209876544,0)" xlink:href="#bj"/></g><path fill="#333" d="M210-169c-67 3-38 105-44 169h-31v-121c0-29-5-50-35-48C34-165 62-65 56 0H25l-1-190h30c1 10-1 24 2 32 10-44 99-50 107 0 11-21 27-35 58-36 85-2 47 119 55 194h-31v-121c0-29-5-49-35-48" id="br"/><g id="y"><use transform="matrix(0.04938271604938272,0,0,0.04938271604938272,0,0)" xlink:href="#br"/><use transform="matrix(0.04938271604938272,0,0,0.04938271604938272,14.765432098765434,0)" xlink:href="#ba"/><use transform="matrix(0.04938271604938272,0,0,0.04938271604938272,24.641975308641978,0)" xlink:href="#bb"/><use transform="matrix(0.04938271604938272,0,0,0.04938271604938272,34.51851851851852,0)" xlink:href="#bc"/><use transform="matrix(0.04938271604938272,0,0,0.04938271604938272,44.39506172839506,0)" xlink:href="#ba"/><use transform="matrix(0.04938271604938272,0,0,0.04938271604938272,54.27160493827161,0)" xlink:href="#bd"/></g><path fill="#333" d="M96-169c-40 0-48 33-48 73s9 75 48 75c24 0 41-14 43-38l32 2c-6 37-31 61-74 61-59 0-76-41-82-99-10-93 101-131 147-64 4 7 5 14 7 22l-32 3c-4-21-16-35-41-35" id="bs"/><g id="z"><use transform="matrix(0.04938271604938272,0,0,0.04938271604938272,0,0)" xlink:href="#bs"/><use transform="matrix(0.04938271604938272,0,0,0.04938271604938272,8.88888888888889,0)" xlink:href="#bl"/><use transform="matrix(0.04938271604938272,0,0,0.04938271604938272,18.765432098765434,0)" xlink:href="#bb"/><use transform="matrix(0.04938271604938272,0,0,0.04938271604938272,28.641975308641978,0)" xlink:href="#bm"/><use transform="matrix(0.04938271604938272,0,0,0.04938271604938272,33.580246913580254,0)" xlink:href="#bg"/><use transform="matrix(0.04938271604938272,0,0,0.04938271604938272,37.48148148148149,0)" xlink:href="#bh"/><use transform="matrix(0.04938271604938272,0,0,0.04938271604938272,47.35802469135803,0)" xlink:href="#bc"/><use transform="matrix(0.04938271604938272,0,0,0.04938271604938272,57.23456790123457,0)" xlink:href="#bj"/><use transform="matrix(0.04938271604938272,0,0,0.04938271604938272,63.111111111111114,0)" xlink:href="#aL"/></g><g id="A"><use transform="matrix(0.04938271604938272,0,0,0.04938271604938272,0,0)" xlink:href="#ba"/><use transform="matrix(0.04938271604938272,0,0,0.04938271604938272,9.876543209876544,0)" xlink:href="#bk"/><use transform="matrix(0.04938271604938272,0,0,0.04938271604938272,19.75308641975309,0)" xlink:href="#bk"/></g><g id="B"><use transform="matrix(0.04938271604938272,0,0,0.04938271604938272,0,0)" xlink:href="#aZ"/><use transform="matrix(0.04938271604938272,0,0,0.04938271604938272,14.765432098765434,0)" xlink:href="#ba"/><use transform="matrix(0.04938271604938272,0,0,0.04938271604938272,24.641975308641978,0)" xlink:href="#bb"/><use transform="matrix(0.04938271604938272,0,0,0.04938271604938272,34.51851851851852,0)" xlink:href="#bc"/><use transform="matrix(0.04938271604938272,0,0,0.04938271604938272,44.39506172839506,0)" xlink:href="#ba"/><use transform="matrix(0.04938271604938272,0,0,0.04938271604938272,54.27160493827161,0)" xlink:href="#bd"/></g><g id="C"><use transform="matrix(0.04938271604938272,0,0,0.04938271604938272,0,0)" xlink:href="#bs"/><use transform="matrix(0.04938271604938272,0,0,0.04938271604938272,8.88888888888889,0)" xlink:href="#bf"/><use transform="matrix(0.04938271604938272,0,0,0.04938271604938272,18.765432098765434,0)" xlink:href="#ba"/><use transform="matrix(0.04938271604938272,0,0,0.04938271604938272,28.641975308641978,0)" xlink:href="#bb"/><use transform="matrix(0.04938271604938272,0,0,0.04938271604938272,38.51851851851852,0)" xlink:href="#bh"/><use transform="matrix(0.04938271604938272,0,0,0.04938271604938272,48.39506172839506,0)" xlink:href="#aL"/><use transform="matrix(0.04938271604938272,0,0,0.04938271604938272,58.27160493827161,0)" xlink:href="#aM"/></g><path fill="#333" d="M190 0L58-211 59 0H30v-248h39L202-35l-2-213h31V0h-41" id="bt"/><g id="D"><use transform="matrix(0.04320987654320988,0,0,0.04320987654320988,0,0)" xlink:href="#bt"/><use transform="matrix(0.04320987654320988,0,0,0.04320987654320988,11.19135802469136,0)" xlink:href="#bl"/></g><path fill="#fff" d="M212-179c-10-28-35-45-73-45-59 0-87 40-87 99 0 60 29 101 89 101 43 0 62-24 78-52l27 14C228-24 195 4 139 4 59 4 22-46 18-125c-6-104 99-153 187-111 19 9 31 26 39 46" id="bu"/><g id="E"><use transform="matrix(0.04938271604938272,0,0,0.04938271604938272,0,0)" xlink:href="#bu"/><use transform="matrix(0.04938271604938272,0,0,0.04938271604938272,12.790123456790125,0)" xlink:href="#aC"/><use transform="matrix(0.04938271604938272,0,0,0.04938271604938272,18.666666666666668,0)" xlink:href="#aH"/><use transform="matrix(0.04938271604938272,0,0,0.04938271604938272,28.543209876543212,0)" xlink:href="#aB"/><use transform="matrix(0.04938271604938272,0,0,0.04938271604938272,38.41975308641976,0)" xlink:href="#aA"/><use transform="matrix(0.04938271604938272,0,0,0.04938271604938272,43.35802469135803,0)" xlink:href="#aD"/><use transform="matrix(0.04938271604938272,0,0,0.04938271604938272,47.25925925925927,0)" xlink:href="#aE"/><use transform="matrix(0.04938271604938272,0,0,0.04938271604938272,57.135802469135804,0)" xlink:href="#aF"/></g><use transform="matrix(0.04938271604938272,0,0,0.04938271604938272,0,0)" xlink:href="#aB" id="F"/><g id="G"><use transform="matrix(0.04938271604938272,0,0,0.04938271604938272,0,0)" xlink:href="#aJ"/><use transform="matrix(0.04938271604938272,0,0,0.04938271604938272,9.876543209876544,0)" xlink:href="#aC"/><use transform="matrix(0.04938271604938272,0,0,0.04938271604938272,15.753086419753087,0)" xlink:href="#aT"/><use transform="matrix(0.04938271604938272,0,0,0.04938271604938272,25.629629629629633,0)" xlink:href="#aU"/><use transform="matrix(0.04938271604938272,0,0,0.04938271604938272,30.567901234567906,0)" xlink:href="#aD"/><use transform="matrix(0.04938271604938272,0,0,0.04938271604938272,34.46913580246914,0)" xlink:href="#aV"/></g><g id="H"><use transform="matrix(0.04938271604938272,0,0,0.04938271604938272,0,0)" xlink:href="#aB"/><use transform="matrix(0.04938271604938272,0,0,0.04938271604938272,9.876543209876544,0)" xlink:href="#aX"/><use transform="matrix(0.04938271604938272,0,0,0.04938271604938272,18.765432098765434,0)" xlink:href="#aX"/><use transform="matrix(0.04938271604938272,0,0,0.04938271604938272,27.654320987654323,0)" xlink:href="#aT"/><use transform="matrix(0.04938271604938272,0,0,0.04938271604938272,37.53086419753087,0)" xlink:href="#aC"/><use transform="matrix(0.04938271604938272,0,0,0.04938271604938272,43.40740740740741,0)" xlink:href="#aO"/><use transform="matrix(0.04938271604938272,0,0,0.04938271604938272,53.283950617283956,0)" xlink:href="#aD"/><use transform="matrix(0.04938271604938272,0,0,0.04938271604938272,57.18518518518519,0)" xlink:href="#aE"/><use transform="matrix(0.04938271604938272,0,0,0.04938271604938272,67.06172839506173,0)" xlink:href="#aF"/></g><g id="I"><use transform="matrix(0.04938271604938272,0,0,0.04938271604938272,0,0)" xlink:href="#aA"/><use transform="matrix(0.04938271604938272,0,0,0.04938271604938272,4.938271604938272,0)" xlink:href="#aT"/></g><g id="J"><use transform="matrix(0.04938271604938272,0,0,0.04938271604938272,0,0)" xlink:href="#aA"/><use transform="matrix(0.04938271604938272,0,0,0.04938271604938272,4.938271604938272,0)" xlink:href="#aG"/><use transform="matrix(0.04938271604938272,0,0,0.04938271604938272,14.814814814814817,0)" xlink:href="#aH"/></g><path fill="#fff" d="M141 0L90-78 38 0H4l68-98-65-92h35l48 74 47-74h35l-64 92 68 98h-35" id="bv"/><path fill="#fff" d="M68-38c1 34 0 65-14 84H32c9-13 17-26 17-46H33v-38h35" id="bw"/><g id="K"><use transform="matrix(0.04938271604938272,0,0,0.04938271604938272,0,0)" xlink:href="#aH"/><use transform="matrix(0.04938271604938272,0,0,0.04938271604938272,9.876543209876544,0)" xlink:href="#bv"/><use transform="matrix(0.04938271604938272,0,0,0.04938271604938272,18.765432098765434,0)" xlink:href="#aB"/><use transform="matrix(0.04938271604938272,0,0,0.04938271604938272,28.641975308641978,0)" xlink:href="#aP"/><use transform="matrix(0.04938271604938272,0,0,0.04938271604938272,43.40740740740741,0)" xlink:href="#aJ"/><use transform="matrix(0.04938271604938272,0,0,0.04938271604938272,53.283950617283956,0)" xlink:href="#aV"/><use transform="matrix(0.04938271604938272,0,0,0.04938271604938272,57.18518518518519,0)" xlink:href="#aH"/><use transform="matrix(0.04938271604938272,0,0,0.04938271604938272,67.06172839506173,0)" xlink:href="#bw"/></g><g id="L"><use transform="matrix(0.04938271604938272,0,0,0.04938271604938272,0,0)" xlink:href="#aB"/><use transform="matrix(0.04938271604938272,0,0,0.04938271604938272,9.876543209876544,0)" xlink:href="#aO"/><use transform="matrix(0.04938271604938272,0,0,0.04938271604938272,19.75308641975309,0)" xlink:href="#aO"/><use transform="matrix(0.04938271604938272,0,0,0.04938271604938272,29.629629629629633,0)" xlink:href="#aD"/><use transform="matrix(0.04938271604938272,0,0,0.04938271604938272,33.53086419753087,0)" xlink:href="#aE"/><use transform="matrix(0.04938271604938272,0,0,0.04938271604938272,43.40740740740741,0)" xlink:href="#aF"/></g><g id="M"><use transform="matrix(0.04938271604938272,0,0,0.04938271604938272,0,0)" xlink:href="#aJ"/><use transform="matrix(0.04938271604938272,0,0,0.04938271604938272,9.876543209876544,0)" xlink:href="#aC"/><use transform="matrix(0.04938271604938272,0,0,0.04938271604938272,15.753086419753087,0)" xlink:href="#aT"/><use transform="matrix(0.04938271604938272,0,0,0.04938271604938272,25.629629629629633,0)" xlink:href="#aU"/><use transform="matrix(0.04938271604938272,0,0,0.04938271604938272,30.567901234567906,0)" xlink:href="#aD"/><use transform="matrix(0.04938271604938272,0,0,0.04938271604938272,34.46913580246914,0)" xlink:href="#aV"/></g><g id="N"><use transform="matrix(0.04938271604938272,0,0,0.04938271604938272,0,0)" xlink:href="#aV"/><use transform="matrix(0.04938271604938272,0,0,0.04938271604938272,3.901234567901235,0)" xlink:href="#aD"/><use transform="matrix(0.04938271604938272,0,0,0.04938271604938272,7.80246913580247,0)" xlink:href="#aW"/><use transform="matrix(0.04938271604938272,0,0,0.04938271604938272,16.69135802469136,0)" xlink:href="#aA"/></g><g id="O"><use transform="matrix(0.04938271604938272,0,0,0.04938271604938272,0,0)" xlink:href="#az"/><use transform="matrix(0.04938271604938272,0,0,0.04938271604938272,11.851851851851853,0)" xlink:href="#aH"/><use transform="matrix(0.04938271604938272,0,0,0.04938271604938272,21.7283950617284,0)" xlink:href="#aA"/></g><g id="P"><use transform="matrix(0.04938271604938272,0,0,0.04938271604938272,0,0)" xlink:href="#aW"/><use transform="matrix(0.04938271604938272,0,0,0.04938271604938272,8.88888888888889,0)" xlink:href="#aH"/><use transform="matrix(0.04938271604938272,0,0,0.04938271604938272,18.765432098765434,0)" xlink:href="#aA"/><use transform="matrix(0.04938271604938272,0,0,0.04938271604938272,23.703703703703706,0)" xlink:href="#aA"/><use transform="matrix(0.04938271604938272,0,0,0.04938271604938272,28.641975308641978,0)" xlink:href="#aD"/><use transform="matrix(0.04938271604938272,0,0,0.04938271604938272,32.543209876543216,0)" xlink:href="#aE"/><use transform="matrix(0.04938271604938272,0,0,0.04938271604938272,42.41975308641976,0)" xlink:href="#aF"/><use transform="matrix(0.04938271604938272,0,0,0.04938271604938272,52.2962962962963,0)" xlink:href="#aW"/></g><path fill="#fff" d="M179-190L93 31C79 59 56 82 12 73V49c39 6 53-20 64-50L1-190h34L92-34l54-156h33" id="bx"/><g id="Q"><use transform="matrix(0.04938271604938272,0,0,0.04938271604938272,0,0)" xlink:href="#aB"/><use transform="matrix(0.04938271604938272,0,0,0.04938271604938272,9.876543209876544,0)" xlink:href="#aX"/><use transform="matrix(0.04938271604938272,0,0,0.04938271604938272,18.765432098765434,0)" xlink:href="#aX"/><use transform="matrix(0.04938271604938272,0,0,0.04938271604938272,27.654320987654323,0)" xlink:href="#aT"/><use transform="matrix(0.04938271604938272,0,0,0.04938271604938272,37.53086419753087,0)" xlink:href="#aC"/><use transform="matrix(0.04938271604938272,0,0,0.04938271604938272,43.40740740740741,0)" xlink:href="#aO"/><use transform="matrix(0.04938271604938272,0,0,0.04938271604938272,53.283950617283956,0)" xlink:href="#aD"/><use transform="matrix(0.04938271604938272,0,0,0.04938271604938272,57.18518518518519,0)" xlink:href="#aE"/><use transform="matrix(0.04938271604938272,0,0,0.04938271604938272,67.06172839506173,0)" xlink:href="#aF"/><use transform="matrix(0.04938271604938272,0,0,0.04938271604938272,76.93827160493828,0)" xlink:href="#aV"/><use transform="matrix(0.04938271604938272,0,0,0.04938271604938272,80.83950617283952,0)" xlink:href="#bx"/></g><path fill="#fff" d="M197 0v-115H63V0H30v-248h33v105h134v-105h34V0h-34" id="by"/><g id="R"><use transform="matrix(0.04938271604938272,0,0,0.04938271604938272,0,0)" xlink:href="#by"/><use transform="matrix(0.04938271604938272,0,0,0.04938271604938272,12.790123456790125,0)" xlink:href="#aB"/><use transform="matrix(0.04938271604938272,0,0,0.04938271604938272,22.66666666666667,0)" xlink:href="#aE"/><use transform="matrix(0.04938271604938272,0,0,0.04938271604938272,32.543209876543216,0)" xlink:href="#aO"/></g><path fill="#fff" d="M115-194c53 0 69 39 70 98 0 66-23 100-70 100C84 3 66-7 56-30L54 0H23l1-261h32v101c10-23 28-34 59-34zm-8 174c40 0 45-34 45-75 0-40-5-75-45-74-42 0-51 32-51 76 0 43 10 73 51 73" id="bz"/><path fill="#fff" d="M24-231v-30h32v30H24zM-9 49c24 4 33-6 33-30v-209h32V24c2 40-23 58-65 49V49" id="bA"/><g id="S"><use transform="matrix(0.04938271604938272,0,0,0.04938271604938272,0,0)" xlink:href="#aW"/><use transform="matrix(0.04938271604938272,0,0,0.04938271604938272,8.88888888888889,0)" xlink:href="#aQ"/><use transform="matrix(0.04938271604938272,0,0,0.04938271604938272,18.765432098765434,0)" xlink:href="#bz"/><use transform="matrix(0.04938271604938272,0,0,0.04938271604938272,28.641975308641978,0)" xlink:href="#bA"/><use transform="matrix(0.04938271604938272,0,0,0.04938271604938272,32.543209876543216,0)" xlink:href="#aH"/><use transform="matrix(0.04938271604938272,0,0,0.04938271604938272,42.41975308641976,0)" xlink:href="#aX"/><use transform="matrix(0.04938271604938272,0,0,0.04938271604938272,51.308641975308646,0)" xlink:href="#aA"/></g><g id="T"><use transform="matrix(0.04938271604938272,0,0,0.04938271604938272,0,0)" xlink:href="#aW"/><use transform="matrix(0.04938271604938272,0,0,0.04938271604938272,8.88888888888889,0)" xlink:href="#aP"/><use transform="matrix(0.04938271604938272,0,0,0.04938271604938272,23.654320987654323,0)" xlink:href="#aB"/><use transform="matrix(0.04938271604938272,0,0,0.04938271604938272,33.53086419753087,0)" xlink:href="#aC"/><use transform="matrix(0.04938271604938272,0,0,0.04938271604938272,39.40740740740741,0)" xlink:href="#aA"/><use transform="matrix(0.04938271604938272,0,0,0.04938271604938272,44.345679012345684,0)" xlink:href="#aY"/><use transform="matrix(0.04938271604938272,0,0,0.04938271604938272,57.135802469135804,0)" xlink:href="#aB"/><use transform="matrix(0.04938271604938272,0,0,0.04938271604938272,67.01234567901236,0)" xlink:href="#aA"/><use transform="matrix(0.04938271604938272,0,0,0.04938271604938272,71.95061728395063,0)" xlink:href="#aX"/><use transform="matrix(0.04938271604938272,0,0,0.04938271604938272,80.83950617283952,0)" xlink:href="#aG"/></g><g id="U"><use transform="matrix(0.04938271604938272,0,0,0.04938271604938272,0,0)" xlink:href="#bt"/><use transform="matrix(0.04938271604938272,0,0,0.04938271604938272,12.790123456790125,0)" xlink:href="#bl"/></g><path fill="#fff" d="M108 0H70L1-190h34L89-25l56-165h34" id="bB"/><g id="V"><use transform="matrix(0.049382716049382706,0,0,0.049382716049382706,0,0)" xlink:href="#az"/><use transform="matrix(0.049382716049382706,0,0,0.049382716049382706,11.85185185185185,0)" xlink:href="#aQ"/><use transform="matrix(0.049382716049382706,0,0,0.049382716049382706,21.728395061728392,0)" xlink:href="#aJ"/><use transform="matrix(0.049382716049382706,0,0,0.049382716049382706,31.604938271604933,0)" xlink:href="#aH"/><use transform="matrix(0.049382716049382706,0,0,0.049382716049382706,41.481481481481474,0)" xlink:href="#aC"/><use transform="matrix(0.049382716049382706,0,0,0.049382716049382706,47.35802469135802,0)" xlink:href="#bB"/><use transform="matrix(0.049382716049382706,0,0,0.049382716049382706,56.246913580246904,0)" xlink:href="#aD"/><use transform="matrix(0.049382716049382706,0,0,0.049382716049382706,60.14814814814814,0)" xlink:href="#aW"/><use transform="matrix(0.049382716049382706,0,0,0.049382716049382706,69.03703703703702,0)" xlink:href="#aT"/><use transform="matrix(0.049382716049382706,0,0,0.049382716049382706,78.91358024691357,0)" xlink:href="#aC"/><use transform="matrix(0.049382716049382706,0,0,0.049382716049382706,83.80246913580245,0)" xlink:href="#bw"/></g><g id="W"><use transform="matrix(0.049382716049382706,0,0,0.049382716049382706,0,0)" xlink:href="#az"/><use transform="matrix(0.049382716049382706,0,0,0.049382716049382706,11.85185185185185,0)" xlink:href="#aQ"/><use transform="matrix(0.049382716049382706,0,0,0.049382716049382706,21.728395061728392,0)" xlink:href="#bz"/><use transform="matrix(0.049382716049382706,0,0,0.049382716049382706,31.604938271604933,0)" xlink:href="#bA"/><use transform="matrix(0.049382716049382706,0,0,0.049382716049382706,35.50617283950616,0)" xlink:href="#aH"/><use transform="matrix(0.049382716049382706,0,0,0.049382716049382706,45.38271604938271,0)" xlink:href="#aX"/><use transform="matrix(0.049382716049382706,0,0,0.049382716049382706,54.271604938271594,0)" xlink:href="#aA"/></g><g id="X"><use transform="matrix(0.049382716049382706,0,0,0.049382716049382706,0,0)" xlink:href="#aB"/><use transform="matrix(0.049382716049382706,0,0,0.049382716049382706,9.87654320987654,0)" xlink:href="#aE"/><use transform="matrix(0.049382716049382706,0,0,0.049382716049382706,19.75308641975308,0)" xlink:href="#aO"/></g><path fill="#fff" d="M143 0L79-87 56-68V0H24v-261h32v163l83-92h37l-77 82L181 0h-38" id="bC"/><g id="Y"><use transform="matrix(0.049382716049382706,0,0,0.049382716049382706,0,0)" xlink:href="#aQ"/><use transform="matrix(0.049382716049382706,0,0,0.049382716049382706,9.87654320987654,0)" xlink:href="#aE"/><use transform="matrix(0.049382716049382706,0,0,0.049382716049382706,19.75308641975308,0)" xlink:href="#aV"/><use transform="matrix(0.049382716049382706,0,0,0.049382716049382706,23.654320987654316,0)" xlink:href="#aT"/><use transform="matrix(0.049382716049382706,0,0,0.049382716049382706,33.53086419753086,0)" xlink:href="#aX"/><use transform="matrix(0.049382716049382706,0,0,0.049382716049382706,42.419753086419746,0)" xlink:href="#bC"/><use transform="matrix(0.049382716049382706,0,0,0.049382716049382706,51.30864197530863,0)" xlink:href="#aJ"/><use transform="matrix(0.049382716049382706,0,0,0.049382716049382706,61.185185185185176,0)" xlink:href="#aB"/><use transform="matrix(0.049382716049382706,0,0,0.049382716049382706,71.06172839506172,0)" xlink:href="#aW"/><use transform="matrix(0.049382716049382706,0,0,0.049382716049382706,79.9506172839506,0)" xlink:href="#aW"/><use transform="matrix(0.049382716049382706,0,0,0.049382716049382706,88.83950617283949,0)" xlink:href="#aJ"/><use transform="matrix(0.049382716049382706,0,0,0.049382716049382706,98.71604938271604,0)" xlink:href="#aG"/><use transform="matrix(0.049382716049382706,0,0,0.049382716049382706,108.59259259259257,0)" xlink:href="#aC"/><use transform="matrix(0.049382716049382706,0,0,0.049382716049382706,114.46913580246914,0)" xlink:href="#aB"/><use transform="matrix(0.049382716049382706,0,0,0.049382716049382706,124.34567901234568,0)" xlink:href="#aW"/><use transform="matrix(0.049382716049382706,0,0,0.049382716049382706,133.23456790123456,0)" xlink:href="#aH"/></g><g id="Z"><use transform="matrix(0.049382716049382706,0,0,0.049382716049382706,0,0)" xlink:href="#aW"/><use transform="matrix(0.049382716049382706,0,0,0.049382716049382706,8.888888888888888,0)" xlink:href="#aH"/><use transform="matrix(0.049382716049382706,0,0,0.049382716049382706,18.76543209876543,0)" xlink:href="#aA"/></g><path fill="#fff" d="M30 0v-248h187v28H63v79h144v27H63v87h162V0H30" id="bD"/><g id="aa"><use transform="matrix(0.04938271604938272,0,0,0.04938271604938272,0,0)" xlink:href="#bD"/><use transform="matrix(0.04938271604938272,0,0,0.04938271604938272,11.851851851851853,0)" xlink:href="#aE"/><use transform="matrix(0.04938271604938272,0,0,0.04938271604938272,21.7283950617284,0)" xlink:href="#aO"/></g><g id="ab"><use transform="matrix(0.04938271604938272,0,0,0.04938271604938272,0,0)" xlink:href="#aT"/><use transform="matrix(0.04938271604938272,0,0,0.04938271604938272,9.876543209876544,0)" xlink:href="#aU"/></g><g id="ac"><use transform="matrix(0.04938271604938272,0,0,0.04938271604938272,0,0)" xlink:href="#aC"/><use transform="matrix(0.04938271604938272,0,0,0.04938271604938272,5.8765432098765435,0)" xlink:href="#aH"/><use transform="matrix(0.04938271604938272,0,0,0.04938271604938272,15.753086419753087,0)" xlink:href="#aX"/><use transform="matrix(0.04938271604938272,0,0,0.04938271604938272,24.641975308641978,0)" xlink:href="#aT"/><use transform="matrix(0.04938271604938272,0,0,0.04938271604938272,34.51851851851852,0)" xlink:href="#aC"/><use transform="matrix(0.04938271604938272,0,0,0.04938271604938272,40.39506172839506,0)" xlink:href="#aO"/><use transform="matrix(0.04938271604938272,0,0,0.04938271604938272,50.27160493827161,0)" xlink:href="#aD"/><use transform="matrix(0.04938271604938272,0,0,0.04938271604938272,54.17283950617284,0)" xlink:href="#aE"/><use transform="matrix(0.04938271604938272,0,0,0.04938271604938272,64.0493827160494,0)" xlink:href="#aF"/></g><path fill="#fff" d="M30-248c118-7 216 8 213 122C240-48 200 0 122 0H30v-248zM63-27c89 8 146-16 146-99s-60-101-146-95v194" id="bE"/><g id="ad"><use transform="matrix(0.04938271604938272,0,0,0.04938271604938272,0,0)" xlink:href="#bE"/><use transform="matrix(0.04938271604938272,0,0,0.04938271604938272,12.790123456790125,0)" xlink:href="#aT"/><use transform="matrix(0.04938271604938272,0,0,0.04938271604938272,22.66666666666667,0)" xlink:href="#aY"/><use transform="matrix(0.04938271604938272,0,0,0.04938271604938272,35.4567901234568,0)" xlink:href="#aE"/><use transform="matrix(0.04938271604938272,0,0,0.04938271604938272,45.33333333333334,0)" xlink:href="#aV"/><use transform="matrix(0.04938271604938272,0,0,0.04938271604938272,49.23456790123458,0)" xlink:href="#aT"/><use transform="matrix(0.04938271604938272,0,0,0.04938271604938272,59.111111111111114,0)" xlink:href="#aB"/><use transform="matrix(0.04938271604938272,0,0,0.04938271604938272,68.98765432098767,0)" xlink:href="#aO"/></g><path fill="#fff" d="M33 0v-38h34V0H33" id="bF"/><g id="ae"><use transform="matrix(0.04938271604938272,0,0,0.04938271604938272,0,0)" xlink:href="#aR"/><use transform="matrix(0.04938271604938272,0,0,0.04938271604938272,6.271604938271605,0)" xlink:href="#aQ"/><use transform="matrix(0.04938271604938272,0,0,0.04938271604938272,16.14814814814815,0)" xlink:href="#aW"/><use transform="matrix(0.04938271604938272,0,0,0.04938271604938272,25.037037037037038,0)" xlink:href="#aH"/><use transform="matrix(0.04938271604938272,0,0,0.04938271604938272,34.91358024691358,0)" xlink:href="#aC"/><use transform="matrix(0.04938271604938272,0,0,0.04938271604938272,39.802469135802475,0)" xlink:href="#bF"/><use transform="matrix(0.04938271604938272,0,0,0.04938271604938272,44.74074074074075,0)" xlink:href="#bz"/><use transform="matrix(0.04938271604938272,0,0,0.04938271604938272,54.61728395061729,0)" xlink:href="#aD"/><use transform="matrix(0.04938271604938272,0,0,0.04938271604938272,58.518518518518526,0)" xlink:href="#aE"/><use transform="matrix(0.04938271604938272,0,0,0.04938271604938272,68.39506172839506,0)" xlink:href="#aR"/></g><g id="af"><use transform="matrix(0.04938271604938272,0,0,0.04938271604938272,0,0)" xlink:href="#aO"/><use transform="matrix(0.04938271604938272,0,0,0.04938271604938272,9.876543209876544,0)" xlink:href="#aB"/><use transform="matrix(0.04938271604938272,0,0,0.04938271604938272,19.75308641975309,0)" xlink:href="#aA"/><use transform="matrix(0.04938271604938272,0,0,0.04938271604938272,24.69135802469136,0)" xlink:href="#aB"/></g><g id="ag"><use transform="matrix(0.04938271604938272,0,0,0.04938271604938272,0,0)" xlink:href="#bE"/><use transform="matrix(0.04938271604938272,0,0,0.04938271604938272,12.790123456790125,0)" xlink:href="#aC"/><use transform="matrix(0.04938271604938272,0,0,0.04938271604938272,18.666666666666668,0)" xlink:href="#aB"/><use transform="matrix(0.04938271604938272,0,0,0.04938271604938272,28.543209876543212,0)" xlink:href="#aF"/></g><g id="ah"><use transform="matrix(0.04938271604938272,0,0,0.04938271604938272,0,0)" xlink:href="#aB"/><use transform="matrix(0.04938271604938272,0,0,0.04938271604938272,9.876543209876544,0)" xlink:href="#aE"/><use transform="matrix(0.04938271604938272,0,0,0.04938271604938272,19.75308641975309,0)" xlink:href="#aO"/></g><g id="ai"><use transform="matrix(0.04938271604938272,0,0,0.04938271604938272,0,0)" xlink:href="#bE"/><use transform="matrix(0.04938271604938272,0,0,0.04938271604938272,12.790123456790125,0)" xlink:href="#aC"/><use transform="matrix(0.04938271604938272,0,0,0.04938271604938272,18.666666666666668,0)" xlink:href="#aT"/><use transform="matrix(0.04938271604938272,0,0,0.04938271604938272,28.543209876543212,0)" xlink:href="#aJ"/></g><g id="aj"><use transform="matrix(0.04938271604938272,0,0,0.04938271604938272,0,0)" xlink:href="#aU"/><use transform="matrix(0.04938271604938272,0,0,0.04938271604938272,4.938271604938272,0)" xlink:href="#aD"/><use transform="matrix(0.04938271604938272,0,0,0.04938271604938272,8.839506172839506,0)" xlink:href="#aV"/><use transform="matrix(0.04938271604938272,0,0,0.04938271604938272,12.740740740740742,0)" xlink:href="#aH"/></g><g id="ak"><use transform="matrix(0.04938271604938272,0,0,0.04938271604938272,0,0)" xlink:href="#aT"/><use transform="matrix(0.04938271604938272,0,0,0.04938271604938272,9.876543209876544,0)" xlink:href="#aE"/><use transform="matrix(0.04938271604938272,0,0,0.04938271604938272,19.75308641975309,0)" xlink:href="#aA"/><use transform="matrix(0.04938271604938272,0,0,0.04938271604938272,24.69135802469136,0)" xlink:href="#aT"/></g><g id="al"><use transform="matrix(0.04938271604938272,0,0,0.04938271604938272,0,0)" xlink:href="#aR"/><use transform="matrix(0.04938271604938272,0,0,0.04938271604938272,6.271604938271605,0)" xlink:href="#bE"/><use transform="matrix(0.04938271604938272,0,0,0.04938271604938272,19.06172839506173,0)" xlink:href="#aH"/><use transform="matrix(0.04938271604938272,0,0,0.04938271604938272,28.938271604938276,0)" xlink:href="#aX"/><use transform="matrix(0.04938271604938272,0,0,0.04938271604938272,37.827160493827165,0)" xlink:href="#aT"/><use transform="matrix(0.04938271604938272,0,0,0.04938271604938272,47.70370370370371,0)" xlink:href="#aO"/><use transform="matrix(0.04938271604938272,0,0,0.04938271604938272,57.580246913580254,0)" xlink:href="#aH"/><use transform="matrix(0.04938271604938272,0,0,0.04938271604938272,67.4567901234568,0)" xlink:href="#aC"/><use transform="matrix(0.04938271604938272,0,0,0.04938271604938272,72.34567901234568,0)" xlink:href="#bF"/><use transform="matrix(0.04938271604938272,0,0,0.04938271604938272,77.28395061728395,0)" xlink:href="#aH"/><use transform="matrix(0.04938271604938272,0,0,0.04938271604938272,87.1604938271605,0)" xlink:href="#bv"/><use transform="matrix(0.04938271604938272,0,0,0.04938271604938272,96.04938271604938,0)" xlink:href="#aH"/><use transform="matrix(0.04938271604938272,0,0,0.04938271604938272,105.92592592592594,0)" xlink:href="#aR"/></g><path fill="#fff" d="M190 0L58-211 59 0H30v-248h39L202-35l-2-213h31V0h-41" id="bG"/><g id="am"><use transform="matrix(0.04938271604938272,0,0,0.04938271604938272,0,0)" xlink:href="#bG"/><use transform="matrix(0.04938271604938272,0,0,0.04938271604938272,12.790123456790125,0)" xlink:href="#aB"/><use transform="matrix(0.04938271604938272,0,0,0.04938271604938272,22.66666666666667,0)" xlink:href="#bB"/><use transform="matrix(0.04938271604938272,0,0,0.04938271604938272,31.555555555555557,0)" xlink:href="#aD"/><use transform="matrix(0.04938271604938272,0,0,0.04938271604938272,35.4567901234568,0)" xlink:href="#aF"/><use transform="matrix(0.04938271604938272,0,0,0.04938271604938272,45.33333333333334,0)" xlink:href="#aB"/><use transform="matrix(0.04938271604938272,0,0,0.04938271604938272,55.209876543209894,0)" xlink:href="#aA"/><use transform="matrix(0.04938271604938272,0,0,0.04938271604938272,60.14814814814817,0)" xlink:href="#aH"/></g><g id="an"><use transform="matrix(0.04938271604938272,0,0,0.04938271604938272,0,0)" xlink:href="#aF"/><use transform="matrix(0.04938271604938272,0,0,0.04938271604938272,9.876543209876544,0)" xlink:href="#aD"/><use transform="matrix(0.04938271604938272,0,0,0.04938271604938272,13.777777777777779,0)" xlink:href="#bB"/><use transform="matrix(0.04938271604938272,0,0,0.04938271604938272,22.666666666666668,0)" xlink:href="#aH"/><use transform="matrix(0.04938271604938272,0,0,0.04938271604938272,32.543209876543216,0)" xlink:href="#aE"/></g><g id="ao"><use transform="matrix(0.04938271604938272,0,0,0.04938271604938272,0,0)" xlink:href="#aU"/><use transform="matrix(0.04938271604938272,0,0,0.04938271604938272,4.938271604938272,0)" xlink:href="#aT"/><use transform="matrix(0.04938271604938272,0,0,0.04938271604938272,14.814814814814817,0)" xlink:href="#aV"/><use transform="matrix(0.04938271604938272,0,0,0.04938271604938272,18.71604938271605,0)" xlink:href="#aO"/><use transform="matrix(0.04938271604938272,0,0,0.04938271604938272,28.592592592592595,0)" xlink:href="#aH"/><use transform="matrix(0.04938271604938272,0,0,0.04938271604938272,38.46913580246914,0)" xlink:href="#aC"/></g><g id="ap"><use transform="matrix(0.04938271604938272,0,0,0.04938271604938272,0,0)" xlink:href="#aB"/><use transform="matrix(0.04938271604938272,0,0,0.04938271604938272,9.876543209876544,0)" xlink:href="#aX"/><use transform="matrix(0.04938271604938272,0,0,0.04938271604938272,18.765432098765434,0)" xlink:href="#aX"/><use transform="matrix(0.04938271604938272,0,0,0.04938271604938272,27.654320987654323,0)" xlink:href="#aH"/><use transform="matrix(0.04938271604938272,0,0,0.04938271604938272,37.53086419753087,0)" xlink:href="#aW"/><use transform="matrix(0.04938271604938272,0,0,0.04938271604938272,46.41975308641976,0)" xlink:href="#aW"/></g><g id="aq"><use transform="matrix(0.04938271604938272,0,0,0.04938271604938272,0,0)" xlink:href="#bu"/><use transform="matrix(0.04938271604938272,0,0,0.04938271604938272,12.790123456790125,0)" xlink:href="#aV"/><use transform="matrix(0.04938271604938272,0,0,0.04938271604938272,16.69135802469136,0)" xlink:href="#aD"/><use transform="matrix(0.04938271604938272,0,0,0.04938271604938272,20.592592592592595,0)" xlink:href="#aX"/><use transform="matrix(0.04938271604938272,0,0,0.04938271604938272,29.481481481481485,0)" xlink:href="#bC"/></g><g id="ar"><use transform="matrix(0.04938271604938272,0,0,0.04938271604938272,0,0)" xlink:href="#aT"/><use transform="matrix(0.04938271604938272,0,0,0.04938271604938272,9.876543209876544,0)" xlink:href="#aE"/></g><g id="as"><use transform="matrix(0.04938271604938272,0,0,0.04938271604938272,0,0)" xlink:href="#aW"/><use transform="matrix(0.04938271604938272,0,0,0.04938271604938272,8.88888888888889,0)" xlink:href="#aA"/><use transform="matrix(0.04938271604938272,0,0,0.04938271604938272,13.827160493827162,0)" xlink:href="#aB"/><use transform="matrix(0.04938271604938272,0,0,0.04938271604938272,23.703703703703706,0)" xlink:href="#aC"/><use transform="matrix(0.04938271604938272,0,0,0.04938271604938272,29.58024691358025,0)" xlink:href="#aA"/></g><g id="at"><use transform="matrix(0.04938271604938272,0,0,0.04938271604938272,0,0)" xlink:href="#aS"/><use transform="matrix(0.04938271604938272,0,0,0.04938271604938272,11.851851851851853,0)" xlink:href="#aC"/><use transform="matrix(0.04938271604938272,0,0,0.04938271604938272,17.728395061728396,0)" xlink:href="#aH"/><use transform="matrix(0.04938271604938272,0,0,0.04938271604938272,27.60493827160494,0)" xlink:href="#aJ"/><use transform="matrix(0.04938271604938272,0,0,0.04938271604938272,37.48148148148148,0)" xlink:href="#aB"/><use transform="matrix(0.04938271604938272,0,0,0.04938271604938272,47.358024691358025,0)" xlink:href="#aC"/><use transform="matrix(0.04938271604938272,0,0,0.04938271604938272,53.23456790123457,0)" xlink:href="#aB"/><use transform="matrix(0.04938271604938272,0,0,0.04938271604938272,63.111111111111114,0)" xlink:href="#aA"/><use transform="matrix(0.04938271604938272,0,0,0.04938271604938272,68.0493827160494,0)" xlink:href="#aD"/><use transform="matrix(0.04938271604938272,0,0,0.04938271604938272,71.95061728395063,0)" xlink:href="#aT"/><use transform="matrix(0.04938271604938272,0,0,0.04938271604938272,81.82716049382718,0)" xlink:href="#aE"/></g><g id="au"><use transform="matrix(0.04938271604938272,0,0,0.04938271604938272,0,0)" xlink:href="#aO"/><use transform="matrix(0.04938271604938272,0,0,0.04938271604938272,9.876543209876544,0)" xlink:href="#aT"/><use transform="matrix(0.04938271604938272,0,0,0.04938271604938272,19.75308641975309,0)" xlink:href="#aE"/><use transform="matrix(0.04938271604938272,0,0,0.04938271604938272,29.629629629629633,0)" xlink:href="#aH"/></g><g id="av"><use transform="matrix(0.04938271604938272,0,0,0.04938271604938272,0,0)" xlink:href="#bu"/><use transform="matrix(0.04938271604938272,0,0,0.04938271604938272,12.790123456790125,0)" xlink:href="#aT"/><use transform="matrix(0.04938271604938272,0,0,0.04938271604938272,22.66666666666667,0)" xlink:href="#aE"/><use transform="matrix(0.04938271604938272,0,0,0.04938271604938272,32.543209876543216,0)" xlink:href="#aE"/><use transform="matrix(0.04938271604938272,0,0,0.04938271604938272,42.41975308641976,0)" xlink:href="#aH"/><use transform="matrix(0.04938271604938272,0,0,0.04938271604938272,52.2962962962963,0)" xlink:href="#aX"/><use transform="matrix(0.04938271604938272,0,0,0.04938271604938272,61.18518518518519,0)" xlink:href="#aA"/></g><g id="aw"><use transform="matrix(0.04938271604938272,0,0,0.04938271604938272,0,0)" xlink:href="#aW"/><use transform="matrix(0.04938271604938272,0,0,0.04938271604938272,8.88888888888889,0)" xlink:href="#aP"/><use transform="matrix(0.04938271604938272,0,0,0.04938271604938272,23.654320987654323,0)" xlink:href="#aB"/><use transform="matrix(0.04938271604938272,0,0,0.04938271604938272,33.53086419753087,0)" xlink:href="#aC"/><use transform="matrix(0.04938271604938272,0,0,0.04938271604938272,39.40740740740741,0)" xlink:href="#aA"/><use transform="matrix(0.04938271604938272,0,0,0.04938271604938272,44.345679012345684,0)" xlink:href="#aY"/><use transform="matrix(0.04938271604938272,0,0,0.04938271604938272,57.135802469135804,0)" xlink:href="#aB"/><use transform="matrix(0.04938271604938272,0,0,0.04938271604938272,67.01234567901236,0)" xlink:href="#aA"/><use transform="matrix(0.04938271604938272,0,0,0.04938271604938272,71.95061728395063,0)" xlink:href="#aX"/><use transform="matrix(0.04938271604938272,0,0,0.04938271604938272,80.83950617283952,0)" xlink:href="#aG"/></g><g id="ax"><use transform="matrix(0.04938271604938272,0,0,0.04938271604938272,0,0)" xlink:href="#aY"/><use transform="matrix(0.04938271604938272,0,0,0.04938271604938272,12.790123456790125,0)" xlink:href="#aD"/><use transform="matrix(0.04938271604938272,0,0,0.04938271604938272,16.69135802469136,0)" xlink:href="#aA"/><use transform="matrix(0.04938271604938272,0,0,0.04938271604938272,21.629629629629633,0)" xlink:href="#aG"/></g><g id="ay"><use transform="matrix(0.04938271604938272,0,0,0.04938271604938272,0,0)" xlink:href="#aS"/><use transform="matrix(0.04938271604938272,0,0,0.04938271604938272,11.851851851851853,0)" xlink:href="#bu"/></g></defs></g></svg>